<?xml version="1.0" encoding="UTF-8" standalone="no"?>
<!-- Created with Inkscape (http://www.inkscape.org/) -->

<svg
   xmlns:dc="http://purl.org/dc/elements/1.1/"
   xmlns:cc="http://creativecommons.org/ns#"
   xmlns:rdf="http://www.w3.org/1999/02/22-rdf-syntax-ns#"
   xmlns:svg="http://www.w3.org/2000/svg"
   xmlns="http://www.w3.org/2000/svg"
   xmlns:sodipodi="http://sodipodi.sourceforge.net/DTD/sodipodi-0.dtd"
   xmlns:inkscape="http://www.inkscape.org/namespaces/inkscape"
   width="210mm"
   height="297mm"
   viewBox="0 0 744.09448819 1052.3622047"
   id="svg2"
   version="1.1"
   inkscape:version="0.91 r13725"
   sodipodi:docname="ThinkTacoBanner.svg">
  <defs
     id="defs4" />
  <sodipodi:namedview
     id="base"
     pagecolor="#ffffff"
     bordercolor="#666666"
     borderopacity="1.0"
     inkscape:pageopacity="0.0"
     inkscape:pageshadow="2"
     inkscape:zoom="2.7499813"
     inkscape:cx="359.99969"
     inkscape:cy="300.03822"
     inkscape:document-units="px"
     inkscape:current-layer="layer1"
     showgrid="false"
     inkscape:window-width="1680"
     inkscape:window-height="988"
     inkscape:window-x="-8"
     inkscape:window-y="-8"
     inkscape:window-maximized="1" />
  <metadata
     id="metadata7">
    <rdf:RDF>
      <cc:Work
         rdf:about="">
        <dc:format>image/svg+xml</dc:format>
        <dc:type
           rdf:resource="http://purl.org/dc/dcmitype/StillImage" />
        <dc:title></dc:title>
      </cc:Work>
    </rdf:RDF>
  </metadata>
  <g
     inkscape:label="Layer 1"
     inkscape:groupmode="layer"
     id="layer1">
    <path
       style="fill:none;fill-rule:evenodd;stroke:#000000;stroke-width:1px;stroke-linecap:butt;stroke-linejoin:miter;stroke-opacity:1"
       d="m 193.3999,754.9265 c 240.08263,-197.40128 241.41642,133.37924 241.41642,133.37924 0,0 29.34344,17.3393 41.34757,-2.66759 12.00413,-20.00688 -1.3338,-326.77913 -262.75711,-148.05095"
       id="path3336"
       inkscape:connector-curvature="0"
       sodipodi:nodetypes="ccsc" />
    <path
       style="fill:none;fill-rule:evenodd;stroke:#000000;stroke-width:1.01726651px;stroke-linecap:butt;stroke-linejoin:miter;stroke-opacity:1"
       d="m 434.57782,888.05384 c 33.81923,-1.36089 38.91017,-25.5869 38.91017,-25.5869 l -31.11369,-31.30043 21.64431,-29.93953 -32.46647,-38.10486 4.05831,-29.93954 -33.81922,-29.93953 -58.16907,-16.33066 -59.52184,12.24799"
       id="path3340"
       inkscape:connector-curvature="0"
       sodipodi:nodetypes="ccccccccc" />
    <flowRoot
       xml:space="preserve"
       id="flowRoot3342"
       style="font-style:normal;font-weight:normal;font-size:40px;line-height:125%;font-family:sans-serif;letter-spacing:0px;word-spacing:0px;fill:#000000;fill-opacity:1;stroke:none;stroke-width:1px;stroke-linecap:butt;stroke-linejoin:miter;stroke-opacity:1"
       transform="matrix(1.4663651,0,0,1.3842414,-129.75265,-202.56554)"><flowRegion
         id="flowRegion3344"><rect
           id="rect3346"
           width="313.44122"
           height="130.71165"
           x="214.74057"
           y="581.53351" /></flowRegion><flowPara
         id="flowPara3348"
         style="font-style:normal;font-variant:normal;font-weight:bold;font-stretch:normal;font-size:50px;font-family:'Levenim MT';-inkscape-font-specification:'Levenim MT Bold'">ThinkTaco</flowPara></flowRoot>    <path
       style="fill:#ffff00;fill-rule:evenodd;stroke:#000000;stroke-width:1px;stroke-linecap:butt;stroke-linejoin:miter;stroke-opacity:1"
       d="M 193.45586,750.17833 436.73024,887.99744"
       id="path3358"
       inkscape:connector-curvature="0"
       sodipodi:nodetypes="cc" />
    <path
       style="fill:#ffff00"
       d="M 316.11062,818.87772 C 251.27734,782.14911 198.30734,751.97643 198.3995,751.82731 c 0.33437,-0.54103 13.06745,-10.30471 19.5271,-14.97332 21.26061,-15.36574 41.24367,-26.79709 59.52707,-34.05257 7.9633,-3.16011 8.85714,-3.40011 24.90926,-6.68815 16.56165,-3.39242 19.33242,-3.71056 27.27292,-3.13154 11.54824,0.8421 21.17915,3.4732 30.79697,8.41354 26.00618,13.35846 46.20518,43.20704 59.02305,87.21987 6.64914,22.83124 11.19625,48.54112 13.4416,76.00052 0.55477,6.78452 1.34354,20.78963 1.18007,20.9531 -0.0485,0.0485 -53.13365,-29.96244 -117.96692,-66.69104 z"
       id="path3360"
       inkscape:connector-curvature="0" />
    <path
       style="fill:#ffff00"
       d="m 435.9093,886.7932 c -0.53827,-0.3344 -0.63686,-0.96717 -0.63952,-4.10458 -0.0102,-12.04273 -2.67873,-37.75665 -5.83793,-56.25504 -10.75424,-62.97039 -33.26768,-106.02815 -65.06849,-124.44582 -10.58282,-6.12911 -22.39727,-9.62369 -35.00967,-10.35547 l -4.08151,-0.23681 9.17578,-1.89099 9.17579,-1.89098 28.91516,8.11853 28.91516,8.11854 15.90942,14.06683 c 8.75018,7.73675 16.2746,14.41395 16.72092,14.8382 l 0.81148,0.77138 -2.00615,14.70282 c -1.10338,8.08656 -1.93313,14.89312 -1.84388,15.12571 0.0892,0.23258 7.30715,8.80715 16.03977,19.05459 9.08234,10.65783 15.79845,18.83772 15.6928,19.11304 -0.10159,0.26472 -4.94732,7.07536 -10.76831,15.13474 l -10.5836,14.65344 15.66198,15.66509 15.66199,15.66509 -0.51777,1.46753 c -3.06053,8.67447 -10.61956,16.039 -20.41422,19.88898 -5.43679,2.13702 -14.42631,3.71645 -15.9092,2.79518 z"
       id="path3364"
       inkscape:connector-curvature="0" />
    <path
       style="fill:#00ff00"
       d="m 451.47184,893.8637 c -3.26726,-0.64867 -8.47148,-2.37095 -11.87462,-3.92979 l -2.68792,-1.23122 1.8182,-0.24349 c 7.32483,-0.98092 12.20821,-2.36317 17.45466,-4.94058 8.04375,-3.95163 14.7475,-11.25554 17.31864,-18.86911 l 0.74811,-2.21526 -15.39705,-15.66547 c -8.46838,-8.616 -15.39706,-15.7193 -15.39706,-15.7851 0,-0.0658 4.7864,-6.7427 10.63644,-14.83754 5.85004,-8.09486 10.63644,-14.82144 10.63644,-14.94798 0,-0.12653 -7.21912,-8.69588 -16.04249,-19.04299 -8.82337,-10.34711 -16.11666,-19.00163 -16.20732,-19.23225 -0.0906,-0.23063 0.74241,-7.08843 1.85125,-15.23956 1.69524,-12.46173 1.93623,-14.8834 1.51433,-15.21715 -0.27596,-0.2183 -7.97241,-7.02227 -17.10321,-15.11994 l -16.60148,-14.72302 -28.79686,-8.08972 c -15.83827,-4.44934 -29.23562,-8.09223 -29.77188,-8.09531 -0.53625,-0.003 -6.59084,1.15267 -13.45463,2.56833 -6.86379,1.41565 -14.03418,2.73087 -15.93419,2.92269 -6.80321,0.68686 -13.87958,2.07615 -21.39623,4.20067 -2.46785,0.69752 -4.56259,1.19264 -4.65495,1.10027 -0.0924,-0.0924 0.29041,-0.33845 0.85062,-0.54684 13.73958,-5.11108 20.27754,-7.22141 29.3824,-9.48412 18.21369,-4.52641 36.95176,-5.77504 52.26862,-3.48297 38.63651,5.7817 68.09546,31.31394 87.29218,75.65666 10.34829,23.90363 17.39788,53.71231 19.68641,83.2426 1.56591,20.20593 0.79858,36.52191 -1.98652,42.24004 -2.03666,4.18149 -6.56535,7.74768 -11.45662,9.02169 -2.65441,0.69139 -9.17973,0.68443 -12.69527,-0.0135 l 0,-2e-5 z"
       id="path3366"
       inkscape:connector-curvature="0" />
    <path
       style="fill:#ffff00"
       d="m 450.9094,893.54294 c -3.07379,-0.69613 -5.39749,-1.45443 -9.66224,-3.1531 l -3.91148,-1.55797 3.87536,-0.61846 c 10.89022,-1.73794 19.95996,-6.19907 25.84711,-12.71342 2.40474,-2.66092 5.09555,-6.82529 6.0383,-9.34501 1.5364,-4.10639 2.48881,-2.66165 -10.39955,-15.77553 -6.35891,-6.47018 -13.24904,-13.48503 -15.3114,-15.58856 l -3.74976,-3.82458 9.54596,-13.2871 c 11.92534,-16.59898 11.6692,-16.22337 11.4436,-16.78146 -0.10323,-0.25539 -4.42396,-5.45529 -9.60162,-11.55533 -5.17767,-6.10004 -12.31245,-14.50767 -15.85508,-18.68361 -4.82722,-5.69018 -6.44114,-7.8349 -6.44114,-8.55954 0,-0.53181 0.66546,-5.95155 1.47881,-12.04388 0.81334,-6.09232 1.56882,-12.54969 1.67883,-14.3497 l 0.20002,-3.27275 -16.9315,-14.98048 -16.93149,-14.98048 -20.11121,-5.63809 c -29.58881,-8.29511 -37.43024,-10.40126 -38.72492,-10.40126 -0.63936,0 -6.2038,0.98736 -12.36544,2.19414 -15.0532,2.94822 -14.24408,2.80398 -19.38484,3.45575 -5.07246,0.64311 -11.54439,1.92381 -16.67515,3.29977 -1.87129,0.50184 -3.471,0.84379 -3.5549,0.75988 -0.21856,-0.21856 12.69513,-4.7578 17.8664,-6.28015 23.17499,-6.8224 44.92653,-8.73294 63.57205,-5.58384 16.34943,2.7613 32.24764,9.84111 45.33778,20.18988 4.50231,3.55941 14.95409,14.2158 18.68988,19.05573 22.38842,29.00554 36.50737,70.62277 40.64945,119.819 0.61385,7.29071 0.62549,28.82594 0.0178,32.95032 -0.96781,6.56869 -2.06029,9.35701 -4.75898,12.14624 -2.16264,2.2352 -4.82306,3.9384 -7.62762,4.88318 -1.8442,0.62127 -3.0684,0.74156 -7.23152,0.71061 -2.75634,-0.0205 -5.91152,-0.24109 -7.01153,-0.4902 z"
       id="path3368"
       inkscape:connector-curvature="0" />
    <path
       style="fill:#00ff00"
       d="m 435.76163,886.34308 c -0.15482,-0.25 -0.39749,-3.80912 -0.53927,-7.90915 -0.94219,-27.24671 -6.66148,-63.44481 -14.16262,-89.63697 -6.2412,-21.79275 -15.65032,-42.74664 -25.69007,-57.21119 -14.15587,-20.39477 -31.66523,-33.21145 -51.91555,-38.00166 -4.43264,-1.04855 -11.46299,-2.04809 -14.65509,-2.08359 -2.906,-0.0323 -1.91978,-0.32791 7.2005,-2.15814 l 7.81823,-1.56894 28.7234,8.07916 c 15.79787,4.44353 28.97068,8.28811 29.27292,8.54351 2.77348,2.34366 31.98582,28.3037 32.36855,28.76485 0.43124,0.51961 0.26158,2.43945 -1.19961,13.57505 -0.93604,7.13341 -1.80299,13.8014 -1.92656,14.81776 l -0.22466,1.84791 13.146,15.55046 c 13.67485,16.17604 18.56804,22.11662 18.56804,22.54253 0,0.2258 -7.22791,10.38427 -17.4338,24.50231 l -3.75892,5.19981 1.05084,1.15531 c 0.57796,0.63542 7.51452,7.67073 15.41458,15.63402 7.90005,7.96329 14.41842,14.72643 14.48526,15.0292 0.0668,0.30278 -0.46945,1.79492 -1.19175,3.31589 -4.04757,8.52303 -11.79314,15.06116 -21.66396,18.28679 -5.90664,1.9302 -13.00533,2.82494 -13.68646,1.72508 z"
       id="path3370"
       inkscape:connector-curvature="0" />
    <path
       style="fill:#916f6f;fill-rule:evenodd;stroke:#000000;stroke-width:1px;stroke-linecap:butt;stroke-linejoin:miter;stroke-opacity:1"
       d="m 436.36661,827.6334 45.45485,29.45475 -45.45485,29.45475 z"
       id="path3372"
       inkscape:connector-curvature="0"
       sodipodi:nodetypes="cccc" />
    <path
       style="fill:#ff0000;fill-rule:evenodd;stroke:#000000;stroke-width:1px;stroke-linecap:butt;stroke-linejoin:miter;stroke-opacity:1"
       d="m 379.63895,714.54172 24.3638,14.54555 0,-10.54552 16.00011,2.90911 -0.36364,-2.54547"
       id="path3374"
       inkscape:connector-curvature="0" />
    <path
       style="fill:#ff0000"
       d="m 398.29813,716.44814 -17.15649,-1.90425 -2.48001,-2.27664 c -7.19007,-6.60045 -16.93,-12.57858 -26.11654,-16.02968 -6.39233,-2.4014 -17.13118,-4.6721 -22.41045,-4.73861 -2.91184,-0.0367 -1.57732,-0.47741 6.54231,-2.16058 l 7.0411,-1.4596 13.68631,3.84803 c 23.37985,6.57346 42.48026,12.10125 43.7465,12.66053 0.66702,0.29462 4.61999,3.57538 8.78439,7.29058 6.42261,5.72984 7.41591,6.74882 6.5455,6.7147 -0.56438,-0.0221 -8.74656,-0.89714 -18.18262,-1.94448 z"
       id="path3376"
       inkscape:connector-curvature="0" />
    <path
       style="fill:#ffff00"
       d="m 195.63493,640.43231 0,-20.18195 -4.7273,0 -4.72731,0 0,-4.54549 0,-4.54548 14.36374,0 14.36373,0 0,4.54548 0,4.54549 -4.7273,0 -4.72731,0 0,20.18195 0,20.18196 -4.90912,0 -4.90913,0 0,-20.18196 z"
       id="path3378"
       inkscape:connector-curvature="0" />
    <path
       style="fill:#ffff00"
       d="m 221.08965,635.34137 0,-25.2729 4.72731,0 4.7273,0 0,8.90122 0,8.90122 2.21972,-1.43467 c 3.65204,-2.36043 5.83252,-3.05077 9.59854,-3.03893 5.06523,0.0159 8.43254,1.64059 10.68923,5.15733 2.04741,3.19062 2.21995,4.67087 2.21995,19.04503 l 0,13.0146 -4.7273,0 -4.72731,0 0,-11.07309 c 0,-12.83212 -0.18252,-14.18943 -2.19878,-16.35097 l -1.38541,-1.48523 -3.2651,0 c -3.08971,0 -3.34015,0.0594 -4.66249,1.10671 -0.79056,0.62611 -1.87114,2.04735 -2.48831,3.27275 l -1.09092,2.16604 -0.11031,11.18189 -0.1103,11.1819 -4.70791,0 -4.70791,0 0,-25.2729 z"
       id="path3380"
       inkscape:connector-curvature="0" />
    <path
       style="fill:#ffff00"
       d="m 263.99904,642.43233 0,-18.18195 4.7273,0 4.72731,0 0,18.18195 0,18.18194 -4.72731,0 -4.7273,0 0,-18.18194 z"
       id="path3382"
       inkscape:connector-curvature="0" />
    <path
       style="fill:#ffff00"
       d="m 265.71087,619.85403 c -4.58059,-2.41741 -3.85962,-8.80449 1.19266,-10.56572 2.98796,-1.04161 6.80397,1.06109 7.58986,4.18217 1.24686,4.95171 -4.11331,8.84774 -8.78252,6.38355 z"
       id="path3384"
       inkscape:connector-curvature="0" />
    <path
       style="fill:#ffff00"
       d="m 282.54462,642.43233 0,-18.18195 4.7273,0 4.72731,0 0,1.8182 c 0,1 0.0632,1.81819 0.14038,1.81819 0.0772,0 1.1372,-0.66565 2.35554,-1.47922 3.35068,-2.2375 5.83674,-3.02401 9.50416,-3.0068 6.24309,0.0293 11.20596,3.60966 12.34126,8.90337 0.23238,1.08356 0.3861,7.07741 0.3861,15.05523 l 0,13.25492 -4.54549,0 -4.54548,0 -0.01,-9.00006 c -0.0159,-14.55218 -0.60155,-17.76038 -3.55614,-19.48155 -2.77529,-1.61672 -7.67382,-0.57994 -9.67862,2.0485 -2.01584,2.6429 -2.14939,3.53569 -2.30856,15.43303 l -0.14717,11.00008 -4.69537,0 -4.69536,0 0,-18.18194 z"
       id="path3386"
       inkscape:connector-curvature="0" />
    <path
       style="fill:#ffff00"
       d="m 326.54492,635.34137 0,-25.2729 4.7273,0 4.72731,0 0,14.54555 c 0,8.00006 0.1294,14.54556 0.28756,14.54556 0.15817,0 3.44925,-3.35457 7.31353,-7.4546 l 7.02596,-7.4546 5.85127,0 5.85127,0 -1.27467,1.36365 c -0.70108,0.75 -4.33431,4.57434 -8.07386,8.49852 -3.73955,3.92419 -6.79918,7.28511 -6.79918,7.46872 0,0.18361 4.10477,4.54115 9.1217,9.68342 l 9.1217,9.34958 -5.80945,0 -5.80946,0 -8.0869,-8.3637 c -4.4478,-4.60003 -8.22923,-8.36369 -8.40319,-8.36369 -0.17396,0 -0.31628,3.76366 -0.31628,8.36369 l 0,8.3637 -4.72731,0 -4.7273,0 0,-25.2729 z"
       id="path3388"
       inkscape:connector-curvature="0" />
    <path
       style="fill:#ffff00"
       d="m 374.1816,640.43231 0,-20.18195 -4.54548,0 -4.54549,0 0,-4.54549 0,-4.54548 14.36374,0 14.36373,0 0,4.54548 0,4.54549 -4.90912,0 -4.90913,0 0,20.18195 0,20.18196 -4.90912,0 -4.90913,0 0,-20.18196 z"
       id="path3390"
       inkscape:connector-curvature="0" />
    <path
       style="fill:#ffff00"
       d="m 414.17912,661.34104 c -4.39261,-0.54513 -7.68085,-2.24262 -10.77951,-5.56472 -7.08203,-7.5927 -7.05018,-19.42488 0.073,-27.11877 5.86233,-6.33202 15.97893,-7.20376 22.9554,-1.97804 l 2.11759,1.58617 0.10906,-2.00765 0.10905,-2.00765 4.70916,0 4.70916,0 0,18.18195 0,18.18194 -4.7273,0 -4.72731,0 0,-1.8182 c 0,-1 -0.13185,-1.81819 -0.29299,-1.81819 -0.16115,0 -0.85661,0.42202 -1.54547,0.93782 -3.7489,2.8071 -8.14497,3.99185 -12.70985,3.42534 z m 8.07746,-8.56474 c 6.93796,-2.364 9.16249,-12.28088 4.03428,-17.98468 -2.22865,-2.47879 -4.7147,-3.39362 -8.65441,-3.18468 -3.36211,0.17831 -5.11377,0.93061 -7.1418,3.06725 -2.29023,2.41287 -2.67231,3.49524 -2.6745,7.57632 -0.002,3.16031 0.11662,3.86855 0.90371,5.40977 1.09749,2.14897 3.5177,4.35643 5.57592,5.08574 2.01969,0.71566 5.90196,0.73043 7.9568,0.0303 z"
       id="path3392"
       inkscape:connector-curvature="0" />
    <path
       style="fill:#ffff00"
       d="m 464.84942,661.33836 c -6.46552,-0.69639 -12.66959,-4.25321 -15.69143,-8.99597 -3.55831,-5.58473 -3.56282,-13.86442 -0.0106,-19.43999 6.92525,-10.86987 24.80615,-13.01324 34.40719,-4.12437 1.24528,1.1529 2.26414,2.24071 2.26414,2.41735 0,0.33447 -6.98317,3.96417 -7.62666,3.96417 -0.20191,0 -1.08742,-0.54983 -1.96781,-1.22185 -4.47509,-3.41591 -12.4225,-3.10249 -16.87813,0.66564 -4.1546,3.51353 -4.46417,11.30726 -0.60678,15.27622 2.61002,2.68551 4.28882,3.28011 9.26108,3.28011 4.6687,0 6.3234,-0.50575 8.81654,-2.69476 l 1.32501,-1.16337 3.74099,2.42765 3.74099,2.42764 -2.06847,1.92533 c -4.46617,4.1571 -11.23971,6.06039 -18.70607,5.2562 z"
       id="path3394"
       inkscape:connector-curvature="0" />
    <path
       style="fill:#ff0000"
       d="m 510.54617,661.32809 c -6.12724,-0.73056 -12.12009,-4.77436 -15.04804,-10.15397 -2.74686,-5.04687 -2.72177,-12.42824 0.0599,-17.62372 1.50044,-2.80246 5.41219,-6.47614 8.52886,-8.00981 6.33416,-3.11695 12.52411,-3.06368 19.07298,0.16414 6.57651,3.24145 10.65919,9.64844 10.65919,16.7276 0,11.66537 -10.74502,20.38948 -23.27289,18.89576 z m 7.71577,-8.99908 c 1.81414,-0.80755 4.34921,-3.4292 5.23865,-5.41756 0.85094,-1.9023 0.86879,-7.05358 0.0311,-8.96577 -1.03128,-2.35399 -2.71539,-4.14404 -4.90812,-5.21684 -2.81664,-1.37805 -6.93636,-1.44022 -9.81836,-0.14817 -2.31973,1.03998 -4.53068,3.43042 -5.32266,5.75476 -0.72673,2.13283 -0.73656,6.0867 -0.0202,8.11714 1.08104,3.06402 3.67714,5.56252 6.65493,6.40475 2.19965,0.62214 6.13344,0.36697 8.14466,-0.52831 z"
       id="path3396"
       inkscape:connector-curvature="0" />
    <path
       style="fill:#ff0000"
       d="m 462.72766,660.80341 c -8.81993,-1.94163 -14.68547,-7.67944 -15.84464,-15.49958 -1.09506,-7.38761 2.33322,-14.52127 8.8632,-18.4428 3.54791,-2.13068 6.82839,-3.05396 11.52693,-3.24422 4.8627,-0.19691 7.9095,0.37001 11.50711,2.1411 2.07684,1.02243 6.67483,4.71998 6.67483,5.36769 0,0.37251 -6.31771,3.67031 -7.03136,3.67031 -0.31889,0 -1.36276,-0.49664 -2.31971,-1.10365 -4.59861,-2.91696 -11.15419,-2.90282 -15.74001,0.0339 -1.77837,1.13887 -3.07221,2.81199 -3.84105,4.96704 -0.66958,1.87684 -0.64449,5.79734 0.0501,7.83598 0.74795,2.19511 2.99921,4.71832 5.15864,5.78181 1.52991,0.75346 2.23302,0.84787 6.26868,0.84179 5.00663,-0.008 6.13227,-0.31508 8.69677,-2.37597 0.78725,-0.63265 1.58443,-1.09169 1.77151,-1.0201 0.18708,0.0716 1.80955,1.10217 3.60549,2.29016 l 3.26535,2.16 -2.03315,1.7975 c -5.03655,4.45277 -13.34749,6.39091 -20.57874,4.799 z"
       id="path3398"
       inkscape:connector-curvature="0" />
    <path
       style="fill:#ff0000"
       d="m 412.72732,660.96769 c -6.65695,-1.38423 -12.47443,-7.5014 -13.99612,-14.71716 -0.67198,-3.18647 -0.67481,-4.80331 -0.0138,-7.92254 1.49954,-7.07673 6.91999,-12.94302 13.32334,-14.41923 4.64635,-1.07116 9.92593,-0.0429 13.95999,2.71896 1.3036,0.89248 2.44186,1.62269 2.52946,1.62269 0.0876,0 0.20874,-0.8591 0.2692,-1.9091 l 0.10991,-1.90911 4.6364,-0.10177 4.63639,-0.10177 0,18.1928 0,18.19281 -4.7273,0 -4.72731,0 0,-1.8182 c 0,-1 -0.16615,-1.81819 -0.36923,-1.81819 -0.20308,0 -1.23222,0.57299 -2.28698,1.27331 -3.73642,2.48084 -9.16372,3.58571 -13.3439,2.7165 z m 9.59424,-8.06653 c 2.11664,-0.6227 5.36572,-3.92493 6.16009,-6.26086 0.84305,-2.47907 0.78766,-6.24978 -0.12775,-8.69642 -0.90898,-2.42947 -3.91823,-5.43754 -6.02479,-6.02242 -2.08069,-0.57771 -6.3103,-0.48444 -8.26704,0.18229 -1.88103,0.64093 -4.53512,2.99166 -5.55423,4.91939 -0.44707,0.84566 -0.69576,2.30864 -0.7997,4.70439 -0.13037,3.00491 -0.0402,3.73422 0.6639,5.37099 0.93914,2.1831 3.97322,5.17483 5.85957,5.7778 1.6935,0.54132 6.28643,0.55542 8.08995,0.0248 z"
       id="path3400"
       inkscape:connector-curvature="0" />
    <path
       style="fill:#ff0000"
       d="m 374.1816,640.43231 0,-20.18195 -4.54548,0 -4.54549,0 0,-4.54549 0,-4.54548 14.36374,0 14.36373,0 0,4.54548 0,4.54549 -4.90912,0 -4.90913,0 0,20.18195 0,20.18196 -4.90912,0 -4.90913,0 0,-20.18196 z"
       id="path3402"
       inkscape:connector-curvature="0" />
    <path
       style="fill:#ff0000"
       d="m 195.63493,640.43231 0,-20.18195 -4.7273,0 -4.72731,0 0,-4.54549 0,-4.54548 14.36374,0 14.36373,0 0,4.54548 0,4.54549 -4.7273,0 -4.72731,0 0,20.18195 0,20.18196 -4.90912,0 -4.90913,0 0,-20.18196 z"
       id="path3404"
       inkscape:connector-curvature="0" />
    <path
       style="fill:#ff0000"
       d="m 221.08965,635.34137 0,-25.2729 4.72731,0 4.7273,0 0,8.90915 c 0,4.90003 0.0932,8.90915 0.20721,8.90915 0.11397,0 0.93733,-0.50233 1.8297,-1.1163 2.91158,-2.00322 5.42541,-2.94062 8.43756,-3.14634 5.16873,-0.353 9.12639,1.23726 11.57971,4.65294 2.03847,2.8381 2.24323,4.38205 2.52855,19.06602 l 0.25786,13.27118 -4.76189,0 -4.76189,0 -0.1129,-12.27281 c -0.12175,-13.23577 -0.0467,-12.71286 -2.22168,-15.48697 l -1.09446,-1.39597 -3.56081,0.12323 c -3.50918,0.12144 -3.57984,0.14168 -4.87422,1.39597 -0.72239,0.7 -1.79477,2.16089 -2.38308,3.24641 l -1.06966,1.97368 -0.004,9.84458 c -0.002,5.41452 -0.10543,10.45823 -0.2294,11.20823 l -0.2254,1.36365 -4.4979,0 -4.49791,0 0,-25.2729 z"
       id="path3406"
       inkscape:connector-curvature="0" />
    <path
       style="fill:#ff0000"
       d="m 263.99904,642.43233 0,-18.18195 4.7273,0 4.72731,0 0,18.18195 0,18.18194 -4.72731,0 -4.7273,0 0,-18.18194 z"
       id="path3408"
       inkscape:connector-curvature="0" />
    <path
       style="fill:#ff0000"
       d="m 282.54462,642.43233 0,-18.18195 4.7273,0 4.72731,0 0,1.8182 c 0,1 0.1084,1.81819 0.24089,1.81819 0.13249,0 0.99159,-0.48146 1.9091,-1.06991 0.91752,-0.58845 2.65004,-1.52849 3.85005,-2.08897 1.93276,-0.90273 2.59783,-1.01929 5.82586,-1.02102 3.38671,-0.002 3.81548,0.0825 6.07181,1.19324 2.87024,1.41302 5.09011,3.74802 5.89183,6.1974 0.43863,1.3401 0.60835,4.63266 0.80453,15.60757 l 0.24863,13.90919 -4.56877,0 -4.56878,0 -0.1576,-11.54554 c -0.17836,-13.06713 -0.39816,-14.43893 -2.62695,-16.39585 -3.6279,-3.18533 -10.69297,-0.75287 -12.21054,4.20401 -0.24501,0.80029 -0.54431,6.00268 -0.71709,12.46457 -0.1631,6.10005 -0.31007,11.1319 -0.32658,11.1819 -0.0165,0.05 -2.0755,0.0909 -4.57552,0.0909 l -4.54548,0 0,-18.18194 z"
       id="path3410"
       inkscape:connector-curvature="0" />
    <path
       style="fill:#ff0000"
       d="m 326.54492,635.34137 0,-25.2729 4.7273,0 4.72731,0 0,14.54555 c 0,8.00006 0.13178,14.54556 0.29284,14.54556 0.28741,0 5.12825,-4.88137 11.45897,-11.55489 l 3.19975,-3.37302 5.48349,0.10027 5.4835,0.10026 -7.86834,8.34081 c -4.32758,4.58745 -7.86833,8.53996 -7.86833,8.78336 0,0.2434 3.98876,4.59009 8.8639,9.65931 l 8.8639,9.21677 -5.37051,0.10017 -5.37052,0.10017 -8.28179,-8.37295 c -4.55498,-4.60513 -8.41793,-8.37296 -8.58433,-8.37296 -0.16639,0 -0.30253,3.76366 -0.30253,8.36369 l 0,8.3637 -4.72731,0 -4.7273,0 0,-25.2729 z"
       id="path3412"
       inkscape:connector-curvature="0" />
    <path
       style="fill:#ffff00"
       d="m 374.1816,640.43231 0,-20.18195 -4.54548,0 -4.54549,0 0,-4.54549 0,-4.54548 14.36374,0 14.36373,0 0,4.54548 0,4.54549 -4.90912,0 -4.90913,0 0,20.18195 0,20.18196 -4.90912,0 -4.90913,0 0,-20.18196 z"
       id="path3414"
       inkscape:connector-curvature="0" />
    <path
       style="fill:#ffff00"
       d="m 411.45459,660.46803 c -2.7228,-0.86337 -4.72377,-2.13922 -7.13295,-4.54812 -3.80637,-3.8059 -5.77623,-8.46757 -5.77623,-13.6694 0,-11.24441 9.65252,-20.10912 19.99644,-18.36439 2.41805,0.40786 6.2707,2.03299 8.54921,3.60625 0.6,0.41429 1.208,0.75433 1.35112,0.75565 0.14311,0.001 0.36874,-0.8158 0.50139,-1.8158 l 0.24119,-1.8182 2.26347,0 c 1.2449,0 3.26929,-0.10513 4.49864,-0.23362 l 2.23517,-0.23362 0,18.23374 0,18.23375 -4.7273,0 -4.72731,0 0,-1.8182 c 0,-1.118 -0.15956,-1.81819 -0.41433,-1.81819 -0.22788,0 -1.21925,0.49527 -2.20305,1.10061 -3.02413,1.86076 -6.71199,2.90292 -10.17409,2.87509 -1.66475,-0.0134 -3.68137,-0.23187 -4.48137,-0.48555 z m 11.67381,-7.87191 c 1.93417,-0.93631 4.34825,-3.52809 5.3088,-5.69956 0.61343,-1.38677 0.71,-2.21424 0.58037,-4.97301 -0.18559,-3.94937 -0.84702,-5.46117 -3.45781,-7.90326 -2.33105,-2.18042 -3.74198,-2.61566 -7.89098,-2.4342 -2.81714,0.12321 -3.60429,0.3004 -5.01982,1.12995 -2.08371,1.22114 -4.17244,3.61564 -4.64836,5.32886 -0.56876,2.0474 -0.44842,7.36984 0.20182,8.92609 0.77317,1.85045 3.66634,4.87914 5.434,5.68852 2.14185,0.98071 7.40781,0.94554 9.49198,-0.0634 z"
       id="path3416"
       inkscape:connector-curvature="0" />
    <path
       style="fill:#ffff00"
       d="m 464.54586,660.9612 c -4.9153,-0.6491 -9.02005,-2.62899 -12.38834,-5.97541 -2.66243,-2.64514 -3.86248,-4.65356 -4.73186,-7.91922 -0.59688,-2.2421 -0.65434,-6.32126 -0.12163,-8.63427 0.98413,-4.27307 4.64743,-9.2076 8.52063,-11.47745 3.72434,-2.1826 6.12159,-2.79168 11.74266,-2.98346 4.91771,-0.16779 5.36853,-0.12379 8.21354,0.80168 2.29363,0.74611 3.76017,1.54205 6.16042,3.34346 1.73259,1.30034 3.15017,2.57734 3.15017,2.8378 0,0.26045 -1.48191,1.23099 -3.29313,2.15675 l -3.29314,1.6832 -2.43418,-1.23517 c -3.67618,-1.86539 -4.8567,-2.13603 -8.60272,-1.97219 -2.88534,0.1262 -3.69978,0.31421 -5.76468,1.33075 -4.08307,2.01009 -5.70985,4.82424 -5.69527,9.85216 0.009,3.21649 0.68021,4.99399 2.74923,7.28416 2.18264,2.41591 3.73993,3.04208 7.99783,3.21581 4.65217,0.18981 7.14334,-0.32306 9.41537,-1.93842 0.97676,-0.69445 1.96824,-1.26264 2.20329,-1.26264 0.23505,0 1.86643,0.93221 3.62531,2.07158 l 3.19795,2.07158 -1.23475,1.0609 c -3.72992,3.20475 -7.75544,4.9874 -12.8712,5.69985 -2.85763,0.39796 -3.4531,0.39692 -6.5455,-0.0115 l 0,10e-6 z"
       id="path3418"
       inkscape:connector-curvature="0" />
    <path
       style="fill:#ffff00"
       d="m 508.36434,660.76603 c -4.70277,-1.24071 -9.42613,-4.56175 -11.98727,-8.42836 -3.57588,-5.3986 -3.57223,-14.41759 0.008,-19.82279 1.287,-1.94301 4.1215,-4.61589 6.52466,-6.15263 4.01739,-2.56897 10.55837,-3.53652 15.46916,-2.28822 9.22538,2.34505 15.15538,9.52829 15.15538,18.3583 0,6.99616 -3.65507,13.00018 -9.96478,16.36867 -4.35201,2.32337 -10.72509,3.14699 -15.20517,1.96503 z m 9.8412,-8.3287 c 1.73092,-0.87181 4.24993,-3.35555 5.16826,-5.09588 0.98987,-1.87593 1.11125,-7.62074 0.20415,-9.66288 -2.80919,-6.32431 -11.91534,-8.19771 -17.20684,-3.53994 -2.54195,2.23751 -3.45535,4.43343 -3.44982,8.2937 0.003,2.32126 0.1885,3.4984 0.74362,4.7273 1.21207,2.68321 3.72394,4.9446 6.51527,5.86557 1.48941,0.49142 6.63017,0.11485 8.02536,-0.58787 z"
       id="path3420"
       inkscape:connector-curvature="0" />
    <path
       style="fill:#ffff00"
       d="m 413.42204,660.57446 c -2.98477,-0.31445 -5.38892,-1.50189 -8.16247,-4.03155 -4.24435,-3.87113 -6.38413,-8.55497 -6.44631,-14.11058 -0.0748,-6.68627 2.96527,-12.38727 8.53989,-16.01454 5.49241,-3.57377 12.60122,-3.28588 18.99555,0.76928 0.92219,0.58484 1.82725,1.06334 2.01124,1.06334 0.184,0 0.43652,-0.61364 0.56116,-1.36364 0.39079,-2.35138 0.26106,-2.27275 3.74949,-2.27275 1.78129,0 3.75007,-0.10227 4.37508,-0.22727 l 1.13637,-0.22728 0,18.2274 0,18.2274 -4.7273,0 -4.72731,0 0,-1.8182 c 0,-1 -0.16772,-1.81819 -0.37272,-1.81819 -0.20499,0 -1.48295,0.55911 -2.83992,1.24246 -4.27865,2.1547 -7.68716,2.81824 -12.09275,2.35412 z m 9.40794,-7.79564 c 1.80734,-0.75219 4.30195,-3.22444 5.38261,-5.33437 0.70866,-1.38363 0.87848,-2.26713 0.87848,-4.5704 0,-4.30132 -0.68112,-6.12199 -3.18299,-8.50837 -2.66734,-2.54422 -3.93991,-2.96458 -8.40061,-2.77493 -3.01079,0.12801 -3.71337,0.28263 -4.96197,1.09203 -1.99266,1.29174 -3.67132,3.12207 -4.34523,4.73783 -0.76772,1.84065 -0.76874,7.81523 -0.002,9.65979 0.73917,1.77745 3.60938,4.71624 5.43782,5.56774 1.88892,0.87966 7.21212,0.95533 9.19356,0.13068 l 10e-6,0 z"
       id="path3422"
       inkscape:connector-curvature="0" />
    <path
       style="fill:#ffff00"
       d="m 413.01826,660.59565 c -4.0868,-0.61974 -8.39181,-3.73032 -11.2616,-8.13703 -4.71068,-7.23351 -3.79277,-16.94787 2.19467,-23.22627 3.40879,-3.57444 7.38978,-5.3456 12.01514,-5.3456 3.1225,0 5.62916,0.7384 9.43543,2.77946 1.67098,0.89604 3.11656,1.55074 3.21241,1.4549 0.0958,-0.0959 0.26577,-0.85647 0.37761,-1.69026 0.11183,-0.8338 0.38444,-1.57112 0.60579,-1.6385 0.22135,-0.0674 2.24338,-0.19721 4.49339,-0.28851 l 4.09094,-0.16601 0,18.13822 0,18.13822 -4.7273,0 -4.72731,0 0,-1.61492 c 0,-0.8882 -0.15312,-1.70954 -0.34026,-1.8252 -0.18714,-0.11566 -1.61897,0.42732 -3.18184,1.20662 -4.14262,2.06565 -8.24937,2.81201 -12.18707,2.21488 z m 9.22526,-7.62882 c 1.89348,-0.52592 4.81255,-3.29156 5.96902,-5.65531 0.90016,-1.83985 0.96257,-2.25682 0.80029,-5.34644 -0.21234,-4.04257 -0.9139,-5.6318 -3.52082,-7.97565 -2.29233,-2.061 -4.15452,-2.60858 -8.1568,-2.39851 -3.54588,0.18611 -5.52031,1.12209 -7.67355,3.63767 -1.72629,2.01678 -2.14355,3.73031 -1.94243,7.97687 0.13184,2.78367 0.33055,3.76702 0.97044,4.80239 1.10321,1.78504 4.23477,4.53493 5.62212,4.93692 1.57867,0.45742 6.31683,0.4706 7.93173,0.0221 z"
       id="path3424"
       inkscape:connector-curvature="0" />
    <path
       style="fill:#ffff00"
       d=""
       id="path3426"
       inkscape:connector-curvature="0" />
    <path
       style="fill:#ffff00"
       d=""
       id="path3428"
       inkscape:connector-curvature="0" />
    <path
       style="fill:#ffff00"
       d="m 412.77111,660.58611 c -2.93792,-0.51522 -5.92564,-2.29267 -8.57565,-5.10182 -7.26624,-7.7026 -7.36926,-18.78057 -0.24413,-26.25194 3.40879,-3.57444 7.38978,-5.3456 12.01514,-5.3456 3.09214,0 5.59827,0.73063 9.41169,2.74388 l 3.01442,1.59142 0.34924,-0.91859 c 0.19209,-0.50522 0.34925,-1.24035 0.34925,-1.63361 0,-0.92473 0.15809,-0.96212 5.00003,-1.18262 l 4.09094,-0.18629 0,18.15666 0,18.15667 -4.7273,0 -4.72731,0 0,-1.61492 c 0,-0.8882 -0.12442,-1.69181 -0.27649,-1.78579 -0.15207,-0.094 -1.5839,0.44227 -3.18184,1.19169 -4.5447,2.1314 -8.67261,2.85171 -12.49799,2.18086 z m 11.10087,-8.54847 c 2.11932,-1.31027 4.26774,-4.05164 4.87496,-6.22043 0.53867,-1.92395 0.27565,-6.33821 -0.48632,-8.16186 -1.40794,-3.36969 -4.81883,-5.77551 -8.56869,-6.04382 -6.79886,-0.48645 -11.49444,2.95371 -11.96075,8.76291 -0.41084,5.11817 0.75326,8.32255 3.95159,10.87747 2.08431,1.66501 3.73545,2.11464 7.28666,1.98424 2.74935,-0.10096 3.3745,-0.25378 4.90255,-1.19851 z"
       id="path3430"
       inkscape:connector-curvature="0" />
    <path
       style="fill:#ffff00"
       d="m 412.65903,660.62579 c -4.46563,-0.8079 -9.86566,-5.4348 -12.17411,-10.43112 -3.44262,-7.4511 -1.86977,-15.85864 4.02587,-21.51992 3.29965,-3.16849 6.29369,-4.52425 10.42781,-4.7219 3.70209,-0.177 5.98465,0.38384 10.2114,2.50901 1.55871,0.7837 2.9869,1.42491 3.17376,1.42491 0.18686,0 0.45225,-0.66594 0.58977,-1.47987 0.13751,-0.81393 0.43826,-1.5367 0.66833,-1.60615 0.23007,-0.0694 2.25923,-0.2246 4.50924,-0.34477 l 4.09094,-0.21851 0,18.1884 0,18.1884 -4.7273,0 -4.72731,0 0,-1.63638 c 0,-1.94944 -0.32765,-2.0354 -2.86239,-0.75095 -4.23406,2.14556 -9.40955,3.08568 -13.20601,2.39885 z m 10.5652,-8.16825 c 1.62561,-0.84064 3.85428,-3.14204 4.85174,-5.01009 0.70764,-1.32526 0.82962,-2.08142 0.80898,-5.01512 -0.0211,-2.99295 -0.15273,-3.70423 -0.98546,-5.3229 -2.01677,-3.92019 -5.78415,-5.86909 -10.56986,-5.46787 -6.60816,0.55401 -10.09823,4.75519 -9.57601,11.52717 0.11729,1.52102 0.38926,3.22839 0.60437,3.79417 0.93003,2.44618 4.19228,5.41856 6.63485,6.04532 1.86839,0.47943 6.88888,0.14355 8.23139,-0.55068 z"
       id="path3432"
       inkscape:connector-curvature="0" />
    <path
       style="fill:#ffff00"
       d=""
       id="path3434"
       inkscape:connector-curvature="0" />
    <path
       style="fill:#ffff00"
       d=""
       id="path3436"
       inkscape:connector-curvature="0" />
    <path
       style="fill:#ffff00"
       d=""
       id="path3438"
       inkscape:connector-curvature="0" />
    <path
       style="fill:#00ff00"
       d="m 267.3718,620.22744 c -2.88377,-0.60282 -4.57794,-2.79305 -4.36787,-5.64681 0.16203,-2.2011 1.1836,-3.80998 2.952,-4.64915 4.93751,-2.343 10.3128,2.60454 7.92175,7.29138 -1.20956,2.37093 -3.8044,3.56929 -6.50588,3.00458 z"
       id="path3440"
       inkscape:connector-curvature="0" />
  </g>
</svg>
